:SAMPLES-PER-SECOND 30
:FULLY-SPECIFIED
:DEGREES
240
root  67.3536 40.2879 -23.5205 -4.65057 2.37604 0.716309
RightUpLeg  -7.639 -15.3483 -7.21586
RightLeg  24.5776 -9.25645 -4.80533
RightFoot  -5.6259 -0.146972 2.16445
RightToes  0.00048216 0.542163 -0.142577
Spine  13.468 -0.349317 -5.12806
Spine1  5.20812 -1.82369 2.69316
HEad  21.7791 5.88098 -4.50129
LeftShoulder1  8.55778 -12.7139 -46.0175
LeftArm  -2.28972 23.4951 -24.5325
LeftForeArm  22.0031 -29.6294 -5.22429
LeftHand  -0.25398 0.0180481 5.50724
RightShoulder  3.86608 6.40266 33.0787
RightArm  2.9907 -23.3731 35.1256
RightForeArm  7.40083 28.8943 5.86524
RightHand  -0.461904 -0.309833 -10.5326
LeftUpLeg  -0.0761974 7.31247 -6.14288
LeftLeg  18.3965 46.5135 10.3078
LeftFoot  -1.92923 -0.00518585 0.206575
LeftToes  1.06248e-005 4.65856e-005 -8.18499e-006
241
root  67.4282 40.297 -23.5025 -4.6787 2.28252 0.792404
RightUpLeg  -5.27501 -14.5746 -7.39492
RightLeg  24.6428 -8.95587 -4.67397
RightFoot  -7.23055 -0.124139 2.09249
RightToes  0.00048216 0.542163 -0.142577
Spine  11.5613 -0.366303 -5.60439
Spine1  4.70802 -1.86308 2.77217
HEad  23.8278 6.09098 -4.0773
LeftShoulder1  8.17348 -12.2016 -45.3609
LeftArm  -2.74991 25.0561 -24.9753
LeftForeArm  21.9658 -29.1153 -5.10676
LeftHand  -0.25398 0.0180481 5.50724
RightShoulder  3.58737 5.84013 32.4443
RightArm  2.12356 -25.1519 35.8401
RightForeArm  7.79061 28.535 5.75825
RightHand  -0.483656 -0.203557 -10.8164
LeftUpLeg  1.72748 7.07505 -5.37958
LeftLeg  15.4603 39.181 5.93654
LeftFoot  -3.53313 0.0507793 -0.426842
LeftToes  1.06248e-005 4.65856e-005 -8.18499e-006
242
root  67.471 40.2663 -23.4562 -4.44957 2.24101 0.929489
RightUpLeg  -2.88431 -14.5428 -7.55761
RightLeg  23.393 -8.10055 -4.03693
RightFoot  -8.02218 -0.124041 2.40542
RightToes  0.00048216 0.542163 -0.142577
Spine  9.62795 -0.377818 -6.00308
Spine1  3.99611 -1.82161 2.89059
HEad  25.9224 6.23693 -3.51337
LeftShoulder1  7.79442 -11.6416 -44.8352
LeftArm  -3.14927 26.5563 -25.0793
LeftForeArm  21.8782 -28.4178 -4.95123
LeftHand  -0.25398 0.0180481 5.50724
RightShoulder  3.31622 5.28966 31.7582
RightArm  1.2797 -26.7992 36.3641
RightForeArm  7.98924 27.7861 5.57104
RightHand  -0.511305 0.088473 -10.863
LeftUpLeg  3.16949 6.71542 -4.83072
LeftLeg  13.1348 33.5527 2.82657
LeftFoot  -5.06236 0.0522629 -0.384176
LeftToes  1.06248e-005 4.65856e-005 -8.18499e-006
243
root  67.5084 40.1933 -23.4037 -4.14664 2.14456 1.03741
RightUpLeg  -0.308481 -15.3166 -7.77656
RightLeg  20.6966 -6.92748 -3.13401
RightFoot  -8.60177 -0.135409 3.2341
RightToes  0.00048216 0.542163 -0.142577
Spine  7.88294 -0.382531 -6.02957
Spine1  3.3061 -1.69329 3.11033
HEad  27.6558 6.24624 -3.2175
LeftShoulder1  7.52645 -11.1185 -44.8399
LeftArm  -3.41287 27.7811 -24.5836
LeftForeArm  21.7061 -27.58 -4.77087
LeftHand  -0.25398 0.0180481 5.50724
RightShoulder  3.05853 4.79808 30.8777
RightArm  0.456814 -28.1405 36.7458
RightForeArm  8.01154 26.8718 5.35808
RightHand  -0.524288 0.259268 -10.8202
LeftUpLeg  4.71275 6.19828 -4.5072
LeftLeg  10.2932 29.7998 0.260707
LeftFoot  -6.55699 0.0234797 0.39775
LeftToes  1.06248e-005 4.65856e-005 -8.18499e-006
244
root  67.5554 40.1181 -23.3778 -3.86729 1.76775 0.988266
RightUpLeg  2.16903 -15.8056 -7.89997
RightLeg  16.911 -6.29263 -2.08485
RightFoot  -9.47496 -0.124805 3.66668
RightToes  0.00048216 0.542163 -0.142577
Spine  6.38804 -0.329358 -5.3041
Spine1  2.97867 -1.39112 3.224
HEad  28.5959 6.26996 -3.42436
LeftShoulder1  7.3882 -10.6998 -45.3283
LeftArm  -3.32818 28.3923 -23.7075
LeftForeArm  20.8941 -26.3818 -4.54255
LeftHand  -0.25398 0.0180481 5.50724
RightShoulder  2.8812 4.51724 29.9476
RightArm  -0.272534 -28.914 36.9524
RightForeArm  7.22591 25.8298 5.16089
RightHand  -0.525572 0.0998322 -11.1444
LeftUpLeg  6.50059 5.55195 -4.35636
LeftLeg  6.47816 28.058 -2.01174
LeftFoot  -7.6892 -0.0036806 1.55673
LeftToes  1.06248e-005 4.65856e-005 -8.18499e-006
245
root  67.5993 40.0935 -23.3884 -3.69635 1.07574 0.751236
RightUpLeg  3.98682 -13.6166 -7.77086
RightLeg  13.3034 -8.19124 -0.73686
RightFoot  -10.1146 -0.101807 3.11135
RightToes  0.00048216 0.542163 -0.142577
Spine  5.09791 -0.204961 -3.78649
Spine1  3.21736 -0.904177 2.70323
HEad  28.7405 6.47972 -3.84152
LeftShoulder1  7.31399 -10.3974 -45.8638
LeftArm  -2.73073 28.0969 -22.901
LeftForeArm  18.9791 -24.2753 -4.21655
LeftHand  -0.25398 0.0180481 5.50724
RightShoulder  2.87891 4.59022 29.5859
RightArm  -0.662358 -28.7613 36.6369
RightForeArm  5.78941 24.3284 4.90579
RightHand  -0.52414 -0.161462 -11.6309
LeftUpLeg  8.00005 4.99407 -4.27386
LeftLeg  2.90403 27.9727 -3.63667
LeftFoot  -8.08857 -0.0251017 2.58129
LeftToes  1.06248e-005 4.65856e-005 -8.18499e-006
